<svg width="17" height="17" viewBox="0 0 17 17" fill="none" xmlns="http://www.w3.org/2000/svg">
<path fill-rule="evenodd" clip-rule="evenodd" d="M8.5 3.49992C5.73858 3.49992 3.5 5.7385 3.5 8.49992C3.5 11.2613 5.73858 13.4999 8.5 13.4999C11.2614 13.4999 13.5 11.2613 13.5 8.49992C13.5 7.75449 13.3372 7.04845 13.0457 6.41426C12.9304 6.16335 13.0403 5.86646 13.2912 5.75113C13.5421 5.6358 13.839 5.74571 13.9543 5.99661C14.3048 6.75915 14.5 7.60742 14.5 8.49992C14.5 11.8136 11.8137 14.4999 8.5 14.4999C5.18629 14.4999 2.5 11.8136 2.5 8.49992C2.5 5.18621 5.18629 2.49992 8.5 2.49992V3.49992Z" fill="currentColor"/>
<path d="M8.5 4.96616V1.03368C8.5 0.821722 8.74721 0.705932 8.91005 0.841626L11.2695 2.80787C11.3895 2.90781 11.3895 3.09203 11.2695 3.19198L8.91005 5.15822C8.74721 5.29391 8.5 5.17812 8.5 4.96616Z" fill="currentColor"/>
</svg>
