<svg xmlns="http://www.w3.org/2000/svg" viewBox="0 0 24 24" fill="none"><mask id="a" width="24" height="24" x="0" y="0" maskUnits="userSpaceOnUse" style="mask-type:alpha"><path fill="#D9D9D9" d="M0 0h24v24H0z"/></mask><g mask="url(#a)"><path fill="#C1C5CA" d="M5.308 21.498c-.505 0-.933-.175-1.283-.525A1.745 1.745 0 0 1 3.5 19.69V6.306c0-.505.175-.933.525-1.283.35-.35.778-.525 1.283-.525h1.384V2.383h1.539v2.115h7.577V2.383h1.5v2.115h1.384c.505 0 .933.175 1.283.525.35.35.525.778.525 1.283V19.69c0 .505-.175.933-.525 1.283-.35.35-.778.525-1.283.525H5.308Zm0-1.5h13.384a.294.294 0 0 0 .212-.096.294.294 0 0 0 .096-.212v-9.384H5v9.384c0 .077.032.148.096.212a.293.293 0 0 0 .212.096ZM5 8.806h14v-2.5a.294.294 0 0 0-.096-.212.294.294 0 0 0-.212-.096H5.308a.294.294 0 0 0-.212.096.294.294 0 0 0-.096.212v2.5Zm7 5.27a.853.853 0 0 1-.626-.26.853.853 0 0 1-.258-.626c0-.245.086-.453.258-.626a.853.853 0 0 1 .626-.258c.245 0 .454.086.626.258a.853.853 0 0 1 .258.626.853.853 0 0 1-.258.626.853.853 0 0 1-.626.26Zm-4 0a.853.853 0 0 1-.626-.26.853.853 0 0 1-.258-.626c0-.245.086-.453.258-.626A.853.853 0 0 1 8 12.306c.245 0 .454.086.626.258a.853.853 0 0 1 .258.626.853.853 0 0 1-.258.626.853.853 0 0 1-.626.26Zm8 0a.853.853 0 0 1-.626-.26.853.853 0 0 1-.258-.626c0-.245.086-.453.258-.626a.853.853 0 0 1 .626-.258c.245 0 .453.086.626.258a.853.853 0 0 1 .258.626.853.853 0 0 1-.258.626.853.853 0 0 1-.626.26Zm-4 3.922a.853.853 0 0 1-.626-.259.852.852 0 0 1-.258-.625c0-.245.086-.454.258-.626a.853.853 0 0 1 .626-.26c.245 0 .454.087.626.26a.853.853 0 0 1 .258.626.852.852 0 0 1-.258.625A.853.853 0 0 1 12 18Zm-4 0a.853.853 0 0 1-.626-.259.852.852 0 0 1-.258-.625c0-.245.086-.454.258-.626a.853.853 0 0 1 .626-.26c.245 0 .454.087.626.26a.853.853 0 0 1 .258.626.852.852 0 0 1-.258.625A.853.853 0 0 1 8 18Zm8 0a.853.853 0 0 1-.626-.259.852.852 0 0 1-.258-.625c0-.245.086-.454.258-.626a.853.853 0 0 1 .626-.26c.245 0 .453.087.626.26a.853.853 0 0 1 .258.626.852.852 0 0 1-.258.625A.853.853 0 0 1 16 18Z"/></g></svg>