<svg width="24" height="24" viewBox="0 0 24 24" fill="none" xmlns="http://www.w3.org/2000/svg">
<mask id="mask0_4920_20068" style="mask-type:alpha" maskUnits="userSpaceOnUse" x="0" y="0" width="24" height="24">
<rect width="24" height="24" fill="currentColor"/>
</mask>
<g mask="url(#mask0_4920_20068)">
<path d="M17.25 12H18.75V10.3L20.225 11.15L20.975 9.85L19.5 9L20.975 8.15L20.225 6.85L18.75 7.7V6H17.25V7.7L15.775 6.85L15.025 8.15L16.5 9L15.025 9.85L15.775 11.15L17.25 10.3V12ZM2 21C1.45 21 0.979167 20.8042 0.5875 20.4125C0.195833 20.0208 0 19.55 0 19V5C0 4.45 0.195833 3.97917 0.5875 3.5875C0.979167 3.19583 1.45 3 2 3H22C22.55 3 23.0208 3.19583 23.4125 3.5875C23.8042 3.97917 24 4.45 24 5V19C24 19.55 23.8042 20.0208 23.4125 20.4125C23.0208 20.8042 22.55 21 22 21H2ZM9 14C9.83333 14 10.5417 13.7083 11.125 13.125C11.7083 12.5417 12 11.8333 12 11C12 10.1667 11.7083 9.45833 11.125 8.875C10.5417 8.29167 9.83333 8 9 8C8.16667 8 7.45833 8.29167 6.875 8.875C6.29167 9.45833 6 10.1667 6 11C6 11.8333 6.29167 12.5417 6.875 13.125C7.45833 13.7083 8.16667 14 9 14ZM2.1 19H15.9C15.2 17.75 14.2333 16.7708 13 16.0625C11.7667 15.3542 10.4333 15 9 15C7.56667 15 6.23333 15.3542 5 16.0625C3.76667 16.7708 2.8 17.75 2.1 19Z" fill="currentColor"/>
</g>
</svg>
