<svg width="8" height="8" viewBox="0 0 8 8" fill="currentColor" xmlns="http://www.w3.org/2000/svg">
<path fill-rule="evenodd" clip-rule="evenodd" d="M4.75 6.5C4.75 6.91421 4.41421 7.25 4 7.25C3.58579 7.25 3.25 6.91421 3.25 6.5C3.25 6.08579 3.58579 5.75 4 5.75C4.41421 5.75 4.75 6.08579 4.75 6.5ZM4.75 4C4.75 4.41421 4.41421 4.75 4 4.75C3.58579 4.75 3.25 4.41421 3.25 4C3.25 3.58579 3.58579 3.25 4 3.25C4.41421 3.25 4.75 3.58579 4.75 4ZM4.75 1.5C4.75 1.91421 4.41421 2.25 4 2.25C3.58579 2.25 3.25 1.91421 3.25 1.5C3.25 1.08579 3.58579 0.75 4 0.75C4.41421 0.75 4.75 1.08579 4.75 1.5Z" fill="currentColor"/>
</svg>
