<svg width="21" height="20" viewBox="0 0 21 20" fill="none" xmlns="http://www.w3.org/2000/svg">
<path d="M0.25 20V2C0.25 1.45 0.445833 0.979167 0.8375 0.5875C1.22917 0.195833 1.7 0 2.25 0H18.25C18.8 0 19.2708 0.195833 19.6625 0.5875C20.0542 0.979167 20.25 1.45 20.25 2V14C20.25 14.55 20.0542 15.0208 19.6625 15.4125C19.2708 15.8042 18.8 16 18.25 16H4.25L0.25 20ZM6.25 9C6.53333 9 6.77083 8.90417 6.9625 8.7125C7.15417 8.52083 7.25 8.28333 7.25 8C7.25 7.71667 7.15417 7.47917 6.9625 7.2875C6.77083 7.09583 6.53333 7 6.25 7C5.96667 7 5.72917 7.09583 5.5375 7.2875C5.34583 7.47917 5.25 7.71667 5.25 8C5.25 8.28333 5.34583 8.52083 5.5375 8.7125C5.72917 8.90417 5.96667 9 6.25 9ZM10.25 9C10.5333 9 10.7708 8.90417 10.9625 8.7125C11.1542 8.52083 11.25 8.28333 11.25 8C11.25 7.71667 11.1542 7.47917 10.9625 7.2875C10.7708 7.09583 10.5333 7 10.25 7C9.96667 7 9.72917 7.09583 9.5375 7.2875C9.34583 7.47917 9.25 7.71667 9.25 8C9.25 8.28333 9.34583 8.52083 9.5375 8.7125C9.72917 8.90417 9.96667 9 10.25 9ZM14.25 9C14.5333 9 14.7708 8.90417 14.9625 8.7125C15.1542 8.52083 15.25 8.28333 15.25 8C15.25 7.71667 15.1542 7.47917 14.9625 7.2875C14.7708 7.09583 14.5333 7 14.25 7C13.9667 7 13.7292 7.09583 13.5375 7.2875C13.3458 7.47917 13.25 7.71667 13.25 8C13.25 8.28333 13.3458 8.52083 13.5375 8.7125C13.7292 8.90417 13.9667 9 14.25 9Z" fill="#007AFF"/>
</svg>
