<svg width="17" height="16" viewBox="0 0 17 16" fill="none" xmlns="http://www.w3.org/2000/svg">
<path fill-rule="evenodd" clip-rule="evenodd" d="M8.5 3.16894C12.1819 3.16894 15.1667 5.78015 15.1667 9.00124C15.1667 12.2223 12.1819 14.8335 8.5 14.8335C4.8181 14.8335 1.83333 12.2223 1.83333 9.00124C1.83333 8.13173 2.0504 7.30816 2.43907 6.5684C2.59285 6.27573 2.4463 5.92941 2.11176 5.79489C1.77722 5.66036 1.38137 5.78856 1.22759 6.08123C0.760258 6.9707 0.5 7.96018 0.5 9.00124C0.5 12.8665 4.08172 16 8.5 16C12.9183 16 16.5 12.8665 16.5 9.00124C16.5 5.13593 12.9183 2.00248 8.5 2.00248V3.16894Z" fill="currentColor"/>
<path d="M8.5 4.87925V0.292173C8.5 0.0449304 8.17038 -0.0901332 7.95327 0.0681474L4.80729 2.36169C4.64737 2.47827 4.64737 2.69315 4.80729 2.80974L7.95327 5.10328C8.17038 5.26156 8.5 5.12649 8.5 4.87925Z" fill="currentColor"/>
</svg>
