<svg width="19" height="18" viewBox="0 0 19 18" fill="none" xmlns="http://www.w3.org/2000/svg">
<path d="M9.25 8C9.8 8 10.2708 7.80417 10.6625 7.4125C11.0542 7.02083 11.25 6.55 11.25 6C11.25 5.45 11.0542 4.97917 10.6625 4.5875C10.2708 4.19583 9.8 4 9.25 4C8.7 4 8.22917 4.19583 7.8375 4.5875C7.44583 4.97917 7.25 5.45 7.25 6C7.25 6.55 7.44583 7.02083 7.8375 7.4125C8.22917 7.80417 8.7 8 9.25 8ZM4.25 18V16H8.25V12.9C7.43333 12.7167 6.70417 12.3708 6.0625 11.8625C5.42083 11.3542 4.95 10.7167 4.65 9.95C3.4 9.8 2.35417 9.25417 1.5125 8.3125C0.670833 7.37083 0.25 6.26667 0.25 5V4C0.25 3.45 0.445833 2.97917 0.8375 2.5875C1.22917 2.19583 1.7 2 2.25 2H4.25V0H14.25V2H16.25C16.8 2 17.2708 2.19583 17.6625 2.5875C18.0542 2.97917 18.25 3.45 18.25 4V5C18.25 6.26667 17.8292 7.37083 16.9875 8.3125C16.1458 9.25417 15.1 9.8 13.85 9.95C13.55 10.7167 13.0792 11.3542 12.4375 11.8625C11.7958 12.3708 11.0667 12.7167 10.25 12.9V16H14.25V18H4.25ZM4.25 7.8V4H2.25V5C2.25 5.63333 2.43333 6.20417 2.8 6.7125C3.16667 7.22083 3.65 7.58333 4.25 7.8ZM14.25 7.8C14.85 7.58333 15.3333 7.22083 15.7 6.7125C16.0667 6.20417 16.25 5.63333 16.25 5V4H14.25V7.8Z" fill="#007AFF"/>
</svg>
