<svg width="20" height="18" viewBox="0 0 20 18" fill="none" xmlns="http://www.w3.org/2000/svg">
<path fill-rule="evenodd" clip-rule="evenodd" d="M1.60443 0.390867C1.34007 0.273371 1.03011 0.339773 0.837095 0.555253C0.644076 0.770733 0.612051 1.08611 0.757815 1.33599L4.643 8.28578H7.143C7.35865 8.33512 7.50014 8.64292 7.50014 9.00006C7.50014 9.3572 7.35853 9.66492 7.143 9.71435H4.643L0.757815 16.6642C0.612051 16.914 0.644076 17.2294 0.837095 17.4448C1.03011 17.6603 1.34007 17.7267 1.60443 17.6092L19.6045 9.71435C19.8451 9.60735 20.0003 9.26353 20.0003 9.00007C20.0003 8.73661 19.8451 8.39278 19.6045 8.28578L1.60443 0.390867Z" fill="#D3E2F6"/>
</svg>
