<svg width="16" height="16" viewBox="0 0 16 16" fill="none" xmlns="http://www.w3.org/2000/svg">
    <g clip-path="url(#clip0_2391_17941)">
        <path d="M8 14.855A6.855 6.855 0 1 0 8 1.145a6.855 6.855 0 0 0 0 13.71z" fill="white" stroke="currentColor"/>
        <path d="M9.874 1.92A6.455 6.455 0 0 1 13.2 4.18l-.038.507-.008.103a.115.115 0 0 1 .033.021c.044.041 1.067.998 1.485 2.574a.108.108 0 0 1-.01.08.106.106 0 0 1-.066.05.106.106 0 0 1-.131-.076c-.403-1.515-1.413-2.46-1.424-2.47l-.024-.034-.064.007c-.228.027-.612.07-.883.086.009.165.039 1.097-.33 2.85l-.006.016c.792.992 1.024 1.865 1.084 2.16.097 0 .69-.002 1.56-.404a.107.107 0 1 1 .09.194c-.834.386-1.423.423-1.62.423h-.057l-.026.061c-.46 1.021-1.365 1.855-1.667 2.115.004.006.005.013.005.02v.095a4.83 4.83 0 0 1-.298 1.586.108.108 0 0 1-.174.04.108.108 0 0 1-.026-.116 4.68 4.68 0 0 0 .283-1.568v.02c-1.168-.13-2.123-.81-2.411-1.036l.036-.015c-1.04.488-2.514.887-2.825.968a5.92 5.92 0 0 0 .04.94l.01.061a.11.11 0 0 1 .04.014c.015.008 1.375.814 2.67 1.058a.108.108 0 0 1-.02.213c-.007 0-.014 0-.02-.003-1.333-.25-2.682-1.05-2.74-1.085a.108.108 0 0 1-.042-.048c-.24.032-.584.06-.584.06l-.13.05a6.46 6.46 0 0 1-2.66-2.87l.03-.084a5.236 5.236 0 0 0 1.1-.463.076.076 0 0 1-.02-.047c-.094-1.434.34-2.797.36-2.854l.02-.037-.053-.08c-.584-.896-.78-1.52-.837-1.756-.1.02-.525.107-.814.268a.11.11 0 0 1-.119-.009.107.107 0 0 1 .014-.179c.36-.2.885-.29.907-.295a.122.122 0 0 1 .054.004c.72-1.183 1.459-1.71 1.733-1.876v-.002c0-.034.028-.834.24-1.24a.107.107 0 1 1 .19.1c-.16.305-.203.908-.213 1.092 1.026.112 1.67.432 1.902.566l.008-.009c.04-.025.98-.63 2.864-.88.05-.184.153-.595.26-1.126zM6.139 6.56c-1.18.376-1.941.706-2.214.831a.08.08 0 0 1 0 .052c-.005.014-.442 1.382-.35 2.774a.107.107 0 0 1-.043.093c.653.9 1.692 1.682 2.042 1.932h.002c.017-.005 1.69-.43 2.834-.966.134-.8.273-2.086.316-2.494l.019.02a121.535 121.535 0 0 0-2.586-2.219l-.021-.024zM9.698 3.25c-1.875.24-2.823.85-2.832.855a.107.107 0 0 1-.06.017c-.326 1.1-.484 1.98-.533 2.285.008.001.015.006.02.01.01.008.909.75 2.572 2.207a24.02 24.02 0 0 0 2.663-.794c.393-1.866.324-2.805.324-2.814a.106.106 0 0 1 .027-.08c-.255-.295-1.113-1.213-2.294-1.778l.155.078a.096.096 0 0 1-.041.015z"
              fill="currentColor"/>
    </g>
    <defs>
        <clipPath id="clip0_2391_17941">
            <rect width="16" height="16" fill="white"/>
        </clipPath>
    </defs>
</svg>