<svg width="16" height="16" viewBox="0 0 16 16" fill="none" xmlns="http://www.w3.org/2000/svg"><path fill-rule="evenodd" clip-rule="evenodd" d="M10.343 2.896a.46.46 0 0 1 .674 0l2.663 2.787a.517.517 0 0 1 0 .707.46.46 0 0 1-.674 0l-1.85-1.933v8.293a.49.49 0 0 1-.476.5.49.49 0 0 1-.477-.5V4.457L8.354 6.39a.46.46 0 0 1-.674 0 .517.517 0 0 1 0-.707l2.663-2.787z" fill="#34C759"/><path fill-rule="evenodd" clip-rule="evenodd" d="M5.657 13.104a.46.46 0 0 1-.674 0L2.32 10.317a.517.517 0 0 1 0-.707.46.46 0 0 1 .674 0l1.85 1.933V3.25c0-.276.213-.5.476-.5a.49.49 0 0 1 .477.5v8.293L7.646 9.61a.46.46 0 0 1 .674 0 .517.517 0 0 1 0 .707l-2.663 2.786z" fill="#FF453A"/></svg>