<svg width="19" height="31" fill="none" xmlns="http://www.w3.org/2000/svg"><path fill-rule="evenodd" clip-rule="evenodd" d="M5.874.102c1.611.445 2.583 2.215 2.171 3.953-.368 1.555-.807 4.02-1.087 6.912.373.043.768.077 1.178.098.86.044 1.721.026 2.534-.072.227-3.289.636-6.28 1.019-8.373.322-1.76 1.906-2.906 3.538-2.558 1.631.348 2.692 2.058 2.37 3.818-.425 2.316-.903 6.005-1.043 9.894-.02.532-.032 1.066-.038 1.6-.007.676-.014 1.174-.02 1.573l-.01.818c-.002.337.001.482.003.536l.067.27c.087.35.208.852.37 1.686.343 1.757-.699 3.48-2.326 3.849-1.627.37-3.224-.755-3.566-2.51a24.058 24.058 0 0 0-.293-1.335l-.02-.077c-.053-.212-.14-.551-.193-.945a19.12 19.12 0 0 1-2.273-.093 25.891 25.891 0 0 1-1.524-.194c.133 2.748.515 5.421 1.248 7.753.535 1.7-.308 3.545-1.883 4.122-1.574.576-3.284-.333-3.819-2.033C.874 24.335.551 19.3.68 14.846c.014-.463.032-.92.055-1.374.226-4.524.894-8.569 1.476-11.027C2.623.706 4.263-.343 5.874.102z" fill="#4354F0"/><path fill-rule="evenodd" clip-rule="evenodd" d="M13.279 25.214c1.149-1.148 2.945-1.214 4.042-.117 1.635 1.652 1.038 3.403.117 4.277a2.941 2.941 0 0 1-4.159 0l-.118-.118c-1.148-1.148-1.03-2.893.118-4.042z" fill="#4354F0"/><path fill-rule="evenodd" clip-rule="evenodd" d="m8.605 15 .034.008c.405.089 1.022.228 1.557.357.267.064.515.126.706.178a6 6 0 0 1 .329.1c.023.009.05.02.072.034a.811.811 0 0 1 .297.357.612.612 0 0 1-.018.542c-.105.198-.289.295-.47.343a1.672 1.672 0 0 1-.26.044l-.048.006-.025.005a.71.71 0 0 1-.167.023 2.71 2.71 0 0 1-.181.002 6.102 6.102 0 0 1-.328-.015c-.244.008-.44-.02-.594-.075a.735.735 0 0 1-.329-.22.58.58 0 0 1-.13-.371v-.001c0-.048.027-.112.052-.162l.031-.059-1.479-.483v-.521l.95-.092zm2.198 1.776h.001l.022-.003c.057-.007.115-.015.173-.03a.45.45 0 0 0 .303-.228.487.487 0 0 0 .012-.43.626.626 0 0 0-.217-.271l-.019-.008a5.533 5.533 0 0 0-.292-.088c-.185-.05-.429-.111-.694-.175a86.521 86.521 0 0 0-1.515-.348l-.13.013c.651.142 1.503.348 1.98.532.443.171.639.465.585.727a.521.521 0 0 1-.21.309zM7.95 15.303v.193l1.557.509-.052.08c-.02.03-.048.08-.072.128a.344.344 0 0 0-.038.104c0 .037 0 .168.096.284a.47.47 0 0 0 .211.142c.099.035.24.059.445.05.381-.016.584-.17.62-.35.038-.186-.1-.407-.444-.54-.554-.214-1.677-.468-2.323-.6z" fill="#fff"/><path fill-rule="evenodd" clip-rule="evenodd" d="M5.691 12.04a.118.118 0 0 1 .177 0c.667.735 1.478 1.916 1.717 3.066.12.58.097 1.162-.175 1.675-.272.513-.781.933-1.593 1.213-.066.022-.136-.017-.157-.09-.02-.071.016-.148.082-.17.773-.267 1.22-.653 1.452-1.09.231-.435.258-.943.147-1.477-.223-1.077-.996-2.214-1.65-2.935a.145.145 0 0 1 0-.192z" fill="#fff"/><path fill-rule="evenodd" clip-rule="evenodd" d="M1.902 13.008c.177.041.288.217.247.393-.387 1.657-.706 3.53-.804 5.212-.1 1.701.031 3.138.484 3.973.22.403.498.639.843.723.356.087.847.03 1.516-.293 1.346-.648 3.254-2.287 5.885-5.384a.33.33 0 0 1 .464-.04c.14.117.157.324.04.462-2.639 3.106-4.622 4.84-6.102 5.551-.743.358-1.398.477-1.96.34-.572-.14-.983-.53-1.265-1.049-.549-1.01-.663-2.611-.563-4.321.101-1.73.427-3.64.82-5.322a.33.33 0 0 1 .395-.245z" fill="#000"/></svg>