<?xml version="1.0" encoding="UTF-8"?>
<svg id="_레이어_1" data-name="레이어 1" xmlns="http://www.w3.org/2000/svg" viewBox="0 0 743.84 1183.03">
  <defs>
    <style>
      .cls-1 {
        fill: #4354f0;
      }
    </style>
  </defs>
  <path class="cls-1" d="m589.56,810.86c50.5-21.5,73.57-80.45,53.87-131.68L407.33,64.93C387.27,12.75,328.71-13.29,276.53,6.77c-52.19,20.05-78.23,78.62-58.17,130.8l108.75,282.91c9.65,25.12-2.88,53.31-28.01,62.98l-12.93,4.97c-25.12,9.66-53.32-2.88-62.98-28l-27.45-71.41c-20.05-52.18-78.62-78.22-130.81-58.16C12.75,350.9-13.29,409.47,6.77,461.65l252.33,656.45c20.05,52.18,78.62,78.22,130.81,58.17,52.18-20.06,78.22-78.62,58.16-130.8l-117.27-305.08c-9.66-25.12,2.88-53.32,28.01-62.98l12.93-4.97c25.12-9.65,53.32,2.88,62.97,28l20.62,53.65c20.5,53.33,81.21,79.36,134.23,56.78"/>
  <path class="cls-1" d="m643.65,861.7c-55.33,0-100.19,44.86-100.19,100.19s44.86,100.18,100.19,100.18,100.18-44.85,100.18-100.18-44.86-100.19-100.18-100.19"/>
</svg>